<?xml version="1.0" encoding="UTF-8"?>
<svg id="Layer_1" data-name="Layer 1" xmlns="http://www.w3.org/2000/svg" viewBox="0 0 364.76 128.24">
  <defs>
    <style>
      .cls-1 {
        fill: #fff;
      }
    </style>
  </defs>
  <path class="cls-1" d="m98.7,57.3c0-.37.18-.55.55-.55h10.08c3.45-.07,6.17,2.87,6.12,6.41,0,2.2-.74,3.79-2.23,4.81,2.1,1.01,3.54,3.52,3.54,6.07.08,3.45-3.19,6.72-6.57,6.64h-10.93c-.37,0-.55-.18-.55-.57v-22.8Zm3.12,9.51h6.77c2.33,0,3.77-1.34,3.77-3.57s-1.44-3.47-3.74-3.47h-6.81v7.04Zm0,10.85h7.98c2.55,0,3.79-1.93,3.79-3.71.07-2.45-2.08-4.11-3.92-4.07h-7.85v7.78Z"/>
  <path class="cls-1" d="m131.72,57.27c.13-.34.35-.5.65-.5h1.51c.3,0,.52.17.65.5l9.26,22.72c.05.13.07.22.07.27,0,.27-.22.42-.5.42h-2.18c-.29,0-.49-.17-.6-.49l-1.83-4.58h-11.23l-1.81,4.58c-.12.32-.34.49-.62.49h-2.35c-.32,0-.5-.13-.5-.4,0-.1.02-.2.07-.28l9.42-22.72Zm5.8,15.26l-4.36-11-4.46,11h8.82Z"/>
  <path class="cls-1" d="m153.55,80.06c0,.42-.2.62-.59.62h-1.86c-.39,0-.57-.2-.57-.62v-22.72c0-.32.22-.57.57-.57h2.2c.28,0,.54.17.77.49l13.66,18.16v-18.07c0-.34.2-.57.59-.57h1.86c.34,0,.59.23.59.57v22.72c0,.42-.2.62-.59.62h-2.01c-.3,0-.55-.15-.77-.47l-13.85-18.81v18.66Z"/>
  <path class="cls-1" d="m196.55,75.75c.13,0,.25.07.37.18l1.11,1.63c.1.13.15.25.15.37,0,.15-.1.32-.3.49-2.01,1.61-4.51,2.57-7.33,2.57-2.23,0-4.29-.55-6.19-1.64-1.89-1.09-3.39-2.58-4.49-4.46-1.12-1.88-1.68-3.94-1.68-6.17s.55-4.29,1.66-6.17c1.11-1.86,2.62-3.35,4.51-4.44,1.89-1.09,3.96-1.63,6.19-1.63,2.82,0,5.3.96,7.36,2.57.18.13.27.3.27.49,0,.12-.02.2-.07.27l-1.17,1.68c-.1.12-.23.18-.4.18-.15,0-.29-.05-.44-.17-1.68-1.29-3.45-2-5.55-2-5.06-.1-9.36,4.16-9.26,9.22-.1,5.05,4.19,9.32,9.26,9.24,1.96,0,3.79-.65,5.52-1.98.18-.15.34-.22.49-.22Z"/>
  <path class="cls-1" d="m213.23,57.27c.13-.34.35-.5.65-.5h1.51c.3,0,.52.17.65.5l9.26,22.72c.05.13.07.22.07.27,0,.27-.22.42-.5.42h-2.18c-.29,0-.49-.17-.6-.49l-1.83-4.58h-11.23l-1.81,4.58c-.12.32-.34.49-.62.49h-2.35c-.32,0-.5-.13-.5-.4,0-.1.02-.2.07-.28l9.42-22.72Zm5.8,15.26l-4.36-11-4.46,11h8.82Z"/>
  <path class="cls-1" d="m245.34,57.3c0-.37.18-.55.55-.55h15.76c.4,0,.6.18.6.55v2.01c0,.39-.2.57-.6.57h-13.2v6.64h10.21c.4,0,.65.18.65.57v1.98c0,.39-.25.55-.65.55h-10.21v7.88h13.18c.4,0,.6.18.6.55v2.05c0,.39-.2.57-.6.57h-15.74c-.37,0-.55-.18-.55-.57v-22.8Zm9.74-3.3c-.2.42-.37.49-.65.49h-1.71c-.27,0-.49-.15-.49-.44,0-.12.02-.22.07-.32l1.76-3.72c.18-.39.37-.5.65-.5h1.69c.27.02.49.25.49.52,0,.1-.02.2-.07.28l-1.74,3.69Z"/>
  <path class="cls-1" d="m267.45,57.32c0-.39.18-.57.57-.57h16.97c.35,0,.54.18.54.57v1.98c0,.39-.18.57-.54.57h-6.92v20.24c0,.39-.18.57-.55.57h-2.01c-.39,0-.57-.18-.57-.57v-20.24h-6.91c-.39,0-.57-.18-.57-.57v-1.98Z"/>
  <path class="cls-1" d="m292.3,57.35c0-.39.2-.6.55-.6h2.01c.37,0,.55.2.55.6v22.7c0,.42-.18.62-.55.62h-2.01c-.37,0-.55-.2-.55-.62v-22.7Z"/>
  <path class="cls-1" d="m319.76,75.75c.13,0,.25.07.37.18l1.11,1.63c.1.13.15.25.15.37,0,.15-.1.32-.3.49-2.01,1.61-4.51,2.57-7.33,2.57-2.23,0-4.29-.55-6.19-1.64-1.89-1.09-3.39-2.58-4.49-4.46-1.12-1.88-1.68-3.94-1.68-6.17s.55-4.29,1.66-6.17c1.11-1.86,2.62-3.35,4.51-4.44,1.89-1.09,3.96-1.63,6.19-1.63,2.82,0,5.3.96,7.36,2.57.18.13.27.3.27.49,0,.12-.02.2-.07.27l-1.17,1.68c-.1.12-.23.18-.4.18-.15,0-.29-.05-.44-.17-1.68-1.29-3.45-2-5.55-2-5.06-.1-9.36,4.16-9.26,9.22-.1,5.05,4.19,9.32,9.26,9.24,1.96,0,3.79-.65,5.52-1.98.18-.15.34-.22.49-.22Z"/>
  <path class="cls-1" d="m335.64,57.27c.13-.34.35-.5.65-.5h1.51c.3,0,.52.17.65.5l9.26,22.72c.05.13.07.22.07.27,0,.27-.22.42-.5.42h-2.18c-.29,0-.49-.17-.6-.49l-1.83-4.58h-11.23l-1.81,4.58c-.12.32-.34.49-.62.49h-2.35c-.32,0-.5-.13-.5-.4,0-.1.02-.2.07-.28l9.42-22.72Zm5.8,15.26l-4.36-11-4.46,11h8.82Z"/>
  <g>
    <path class="cls-1" d="m109.58,109.76h-10.49v-17.23c0-.41-.22-.66-.58-.66h-.01c-.37,0-.59.25-.59.66v17.83c0,.38.23.61.59.61h11.09c.19,0,.34-.05.47-.15.1-.08.22-.22.22-.48,0-.14-.05-.58-.69-.58Z"/>
    <path class="cls-1" d="m120.55,92.31c-.06-.15-.14-.26-.25-.33-.1-.06-.2-.1-.3-.1h-.1c-.16.02-.37.11-.51.42l-7.49,17.81c-.04.09-.06.19-.06.29,0,.22.1.36.19.43.11.09.25.14.45.14.15,0,.36-.07.5-.41l2.05-4.89h9.83l2.05,4.9c.15.34.38.4.55.4.15,0,.28-.06.41-.17.13-.11.2-.26.2-.43,0-.09-.02-.18-.06-.26l-7.48-17.81Zm3.82,12.17h-8.82l4.42-10.53,4.4,10.53Z"/>
    <path class="cls-1" d="m142.46,91.88h-13.36c-.37,0-.61.23-.61.61s.23.61.61.61h6.1v17.28c0,.38.23.61.62.61.36,0,.58-.23.58-.61v-17.28h6.06c.36,0,.58-.23.58-.62,0-.37-.22-.59-.58-.59Z"/>
    <path class="cls-1" d="m146.45,91.88c-.24,0-.38.11-.45.21-.09.12-.14.27-.14.45v17.77c0,.18.04.34.13.45.07.1.21.22.48.22.14,0,.58-.05.58-.67v-17.77c0-.41-.22-.66-.59-.66Z"/>
    <path class="cls-1" d="m167.19,91.88c-.37,0-.61.23-.61.59v16.27l-13.31-16.53c-.19-.22-.38-.33-.58-.33h-.08c-.23.02-.36.12-.42.21-.09.11-.14.25-.14.39v17.83c0,.18.04.34.13.45.07.1.21.22.48.22.14,0,.58-.05.58-.67v-16.22l13.33,16.58c.19.21.37.32.56.32h.08c.14,0,.58-.05.58-.67v-17.83c0-.37-.22-.59-.59-.59Z"/>
    <path class="cls-1" d="m185.9,92.98c-1.48-.87-3.12-1.31-4.9-1.31s-3.42.44-4.92,1.31c-1.49.87-2.7,2.06-3.58,3.55-.88,1.49-1.33,3.14-1.33,4.92s.44,3.41,1.32,4.9c.87,1.48,2.08,2.67,3.57,3.53,1.5.86,3.15,1.3,4.93,1.3s3.42-.44,4.9-1.3c1.47-.86,2.66-2.05,3.51-3.53.86-1.48,1.29-3.13,1.29-4.9s-.43-3.43-1.29-4.92c-.86-1.49-2.04-2.68-3.51-3.55Zm3.56,8.47c0,1.56-.38,3-1.12,4.29-.74,1.29-1.77,2.32-3.06,3.07-1.29.75-2.73,1.13-4.29,1.13s-3.01-.38-4.32-1.13c-1.3-.75-2.35-1.78-3.11-3.08-.76-1.29-1.14-2.73-1.14-4.28s.38-3,1.14-4.3c.76-1.3,1.8-2.34,3.11-3.09,1.31-.75,2.76-1.14,4.32-1.14s3,.38,4.29,1.13c1.29.75,2.31,1.79,3.06,3.08.74,1.29,1.12,2.75,1.12,4.32Z"/>
    <path class="cls-1" d="m202.16,92.31c-.06-.15-.14-.26-.25-.33-.1-.06-.2-.1-.3-.1h-.1c-.16.02-.37.11-.51.42l-7.49,17.81c-.04.09-.06.19-.06.29,0,.23.11.36.19.43.11.09.25.14.45.14.15,0,.36-.07.5-.41l2.05-4.89h9.83l2.05,4.9c.14.35.38.4.55.4.15,0,.29-.06.41-.17.13-.12.2-.26.2-.43,0-.09-.02-.17-.06-.26l-7.48-17.81Zm3.82,12.17h-8.82l4.42-10.53,4.4,10.53Z"/>
    <path class="cls-1" d="m230.16,92c-.17-.14-.42-.23-.7-.05-.1.06-.18.15-.24.29l-7.01,14.99-7.08-15.04c-.05-.11-.12-.19-.2-.24-.09-.06-.17-.09-.26-.09h-.07c-.16.01-.3.07-.41.18-.11.11-.18.23-.19.37l-1.51,17.89v.08c0,.33.2.55.57.59.35,0,.58-.22.62-.58l1.33-15.68,6.68,14.19c.1.19.29.3.55.3.22,0,.4-.11.51-.31l6.62-14.15,1.35,15.68c.02.19.09.33.19.42.1.09.26.13.47.13.33-.04.52-.25.52-.55l-1.53-18.01c-.01-.17-.08-.31-.21-.41Z"/>
    <path class="cls-1" d="m248.81,109.76h-11.77v-8.07h9.39c.18,0,.33-.04.45-.13.11-.07.23-.21.23-.48,0-.26-.12-.4-.23-.47-.12-.09-.28-.13-.46-.13h-9.39v-7.4h11.51c.19,0,.34-.05.46-.15.09-.07.2-.22.2-.47,0-.37-.25-.59-.66-.59h-12.11c-.37,0-.59.23-.59.59v17.9c0,.38.23.61.59.61h12.37c.19,0,.34-.05.46-.15.09-.07.2-.22.2-.47,0-.37-.25-.59-.66-.59Z"/>
    <path class="cls-1" d="m264.93,101.2c.65-.98.97-2.08.97-3.28,0-1.08-.27-2.1-.81-3.02-.54-.92-1.28-1.67-2.19-2.21-.92-.54-1.94-.82-3.02-.82h-7.08c-.37,0-.59.23-.59.59v17.9c0,.38.23.61.61.61.36,0,.58-.23.58-.61v-6.44h6.49c.53,0,1.03-.06,1.52-.19l2.84,6.83c.06.14.16.25.27.31.11.06.21.09.35.09.15,0,.29-.06.41-.18.12-.12.18-.27.18-.43,0-.03,0-.08-.04-.22l-2.83-6.85c.96-.49,1.75-1.19,2.35-2.1Zm-.88-.86c-.42.73-1.01,1.31-1.74,1.74-.73.42-1.55.64-2.44.64h-6.49v-9.64h6.49c.88,0,1.7.22,2.43.65.73.43,1.32,1.02,1.74,1.76.42.74.63,1.56.63,2.44s-.21,1.69-.63,2.42Z"/>
    <path class="cls-1" d="m270.08,91.88c-.24,0-.38.11-.45.21-.09.12-.14.27-.14.45v17.77c0,.18.04.34.13.45.07.1.21.22.48.22.14,0,.58-.05.58-.67v-17.77c0-.41-.22-.66-.59-.66Z"/>
    <path class="cls-1" d="m287.32,92.26c-1.02-.39-2.11-.58-3.25-.58-1.78,0-3.44.44-4.94,1.3-1.5.86-2.71,2.05-3.59,3.54-.88,1.48-1.33,3.14-1.33,4.91s.45,3.42,1.33,4.9c.88,1.49,2.09,2.68,3.59,3.54,1.5.87,3.16,1.3,4.93,1.3,1.14,0,2.23-.2,3.26-.6,1.02-.39,1.96-.96,2.8-1.67.17-.13.26-.32.26-.53,0-.19-.08-.31-.18-.41-.22-.21-.56-.21-.83,0-1.65,1.3-3.44,1.96-5.32,1.96-1.56,0-3.02-.38-4.33-1.14-1.31-.75-2.37-1.79-3.14-3.08-.77-1.29-1.16-2.74-1.16-4.29s.39-3,1.15-4.3c.77-1.3,1.82-2.33,3.14-3.08,1.32-.75,2.78-1.13,4.34-1.13,1.88,0,3.67.65,5.34,1.94.3.22.65.2.9-.05l.09-.17c.03-.06.05-.12.05-.19,0-.18-.09-.35-.3-.54-.86-.71-1.81-1.26-2.83-1.65Zm2.75,15.92h0s0,0,0,0h0Z"/>
    <path class="cls-1" d="m301.53,92.31c-.06-.15-.14-.26-.25-.33-.1-.06-.2-.1-.3-.1h-.1c-.16.02-.38.11-.51.42l-7.49,17.81c-.04.09-.06.19-.06.29,0,.23.11.36.19.43.11.09.26.14.45.14.15,0,.36-.07.5-.41l2.05-4.89h9.83l2.05,4.9c.14.35.38.4.55.4.15,0,.28-.06.41-.17.13-.12.2-.26.2-.43,0-.09-.02-.17-.06-.26l-7.48-17.81Zm3.82,12.17h-8.82l4.42-10.53,4.4,10.53Z"/>
    <path class="cls-1" d="m327.6,91.88c-.37,0-.61.23-.61.59v16.27l-13.31-16.53c-.19-.22-.38-.33-.58-.33h-.08c-.23.02-.36.12-.42.21-.09.11-.14.25-.14.39v17.83c0,.18.04.34.13.45.07.1.21.22.48.22.14,0,.58-.05.58-.67v-16.22l13.33,16.58c.19.21.37.32.56.32h.08c.14,0,.58-.05.58-.67v-17.83c0-.37-.22-.59-.59-.59Z"/>
    <path class="cls-1" d="m347.6,110.12l-7.48-17.81c-.06-.15-.15-.26-.25-.33-.1-.06-.2-.1-.3-.1h-.1c-.16.02-.37.11-.51.42l-7.49,17.81c-.04.09-.06.19-.06.29,0,.23.11.36.19.43.11.09.25.14.45.14.15,0,.36-.07.5-.41l2.05-4.89h9.83l2.05,4.9c.15.34.38.4.55.4.15,0,.28-.06.41-.17.13-.11.2-.26.2-.43,0-.08-.02-.17-.06-.26Zm-3.65-5.64h-8.82l4.42-10.53,4.4,10.53Z"/>
  </g>
  <g>
    <path class="cls-1" d="m88.4,41.36c-.13-.89-1.01-1.07-1.01-1.07L27.65,18.07s-.95-.4-1.58.24c-.62.64-.34,1.62-.34,1.62l12.38,28.92h.02s0,0,0,0l37.83,4.82,11.96-10.92s.61-.49.48-1.38Z"/>
    <path class="cls-1" d="m50.71,76.2c-.09,0-.19,0-.29-.02-.79-.15-1.03-1-1.03-1l-11.28-26.34-3.41-.43-.03-.05-1.5-.19s-.96-.1-1.42.5c-.46.6-.17,1.54-.17,1.54l21.52,59.5s.41,1.02,1.3.99c.88-.03,1.33-.86,1.33-.86l26.65-53.36s.48-.66.06-1.39c-.41-.73-1.23-.74-1.23-.74l-5.24-.67-24.16,22.07s-.45.46-1.1.47Zm2.95.48s-.02,0-.03,0c-.23-.02-.42-.08-.57-.16.16.08.36.14.6.16Z"/>
    <rect class="cls-1" x="75.96" y="53.66" width="0" height=".01" transform="translate(-16.34 65.05) rotate(-42.27)"/>
  </g>
</svg>