<?xml version="1.0" encoding="UTF-8"?>
<svg id="Capa_1" data-name="Capa 1" xmlns="http://www.w3.org/2000/svg" xmlns:xlink="http://www.w3.org/1999/xlink" viewBox="0 0 613.62 380.71">
  <defs>
    <style>
      .cls-1, .cls-2, .cls-3 {
        fill: none;
      }

      .cls-2 {
        stroke: #c77521;
        stroke-width: 3px;
      }

      .cls-2, .cls-3 {
        stroke-miterlimit: 10;
      }

      .cls-4 {
        clip-path: url(#clippath);
      }

      .cls-5 {
        fill: #6996c0;
      }

      .cls-6 {
        fill: #007f58;
      }

      .cls-7 {
        fill: #fff;
      }

      .cls-8 {
        fill: #e6a54a;
      }

      .cls-9 {
        fill: #d8bcb4;
      }

      .cls-10 {
        fill: #cad6e0;
      }

      .cls-11 {
        fill: #e38997;
      }

      .cls-12 {
        fill: #c77521;
      }

      .cls-13 {
        fill: #371d15;
      }

      .cls-14 {
        fill: #7fccc3;
      }

      .cls-15 {
        clip-path: url(#clippath-1);
      }

      .cls-3 {
        stroke: #371d15;
        stroke-width: 2px;
      }
    </style>
    <clipPath id="clippath">
      <rect class="cls-1" x="30.93" y="12.91" width="551.76" height="354.89"/>
    </clipPath>
    <clipPath id="clippath-1">
      <path class="cls-1" d="m134.69,321.85c4.55.61-9.01,17.88-9.01,30.99,0,2.65,2.47,4.17,1.59,4.24h19.67c.08-.36.16-.71.26-1.04,2.58-9.82,7.29-5.76,8.2-11.79.08-.54.22-1.07.41-1.58.85-2.3,2.83-4.27,6.19-5.26.75-.22,1.56-16.51,2.45-16.62.23-.03-.03-.04-.66-.04-4.82,0-31.46.79-29.09,1.1"/>
    </clipPath>
  </defs>
  <g id="Grupo_215" data-name="Grupo 215">
    <g id="Grupo_212" data-name="Grupo 212">
      <g class="cls-4">
        <g id="Grupo_211" data-name="Grupo 211">
          <path id="Trazado_790" data-name="Trazado 790" class="cls-13" d="m474.32,356.73c-.19,0-.37-.01-.56-.03-1.39-.17-3.78-1.14-4.1-5.77-.2-2.88-.13-7.48-.04-11.61.03-1.45.07-2.9.11-4.33.1-3.9.2-7.58.16-9.88-.02-1.01-.69-1.9-1.66-2.19l-16.35-4.69,11.87-22.02,18.18,6.93.29.04c2.29.27,4.56.72,6.78,1.35,2.94.95,4.15,3.71,3.08,7.05l-13.13,42.41c-.42,1.33-2.5,2.73-4.62,2.73m-20.88-39.15l15.09,4.33c1.41.43,2.39,1.72,2.42,3.19.04,2.32-.06,6.02-.16,9.93-.04,1.42-.07,2.88-.11,4.32-.09,4.1-.15,8.67.04,11.51.2,2.91,1.3,4.56,3.17,4.79,1.82.22,3.74-1.03,4.04-1.96l13.13-42.41c.7-2.17.43-4.81-2.4-5.72-2.16-.62-4.37-1.05-6.61-1.31l-.46-.08-17.36-6.62-10.8,20.04Z"/>
          <path id="Trazado_791" data-name="Trazado 791" class="cls-13" d="m478.53,354.57l13.72-42.74c.93-2.84-.59-5.9-3.41-6.88-2.33-.62-4.71-1.06-7.12-1.3-.97,1.74-1.51,3.69-1.56,5.68-.43,8.67-1.15,18.38-2.06,20.56-1.47,3.48-5.87,7.03-8.01,9.44-.1,4.48-.27,8.94-.08,11.67.55,7.93,7.79,5.87,8.52,3.59"/>
          <path id="Trazado_792" data-name="Trazado 792" class="cls-13" d="m458.37,319.55l1.28.31,15.69-19.36-10.12-3.15-6.85,22.2Z"/>
          <path id="Trazado_793" data-name="Trazado 793" class="cls-5" d="m323.63,284.71c5.34,7.01,13.02,11.35,30.16,16.02.53.14,4.53,1.42,10.65,3.39,4.34,1.4,9.75,3.14,15.76,5.08.72.23,1.44.47,2.17.7,30.04,9.71,72.94,23.64,72.94,23.64l15.69-48.4-73.51-20.91-6.13-1.74-5.44-1.55,6.91-5.4,4.05-3.17,40.57-31.73c-55.74,7.34-96.32,3.28-112.48,21.33-11.69,13.05-9.52,32.02-1.34,42.76"/>
          <path id="Trazado_794" data-name="Trazado 794" class="cls-5" d="m431.44,294.73s19.37,8.83,32.38,8.34c26.7-1,45.4-27.37,38.98-58.47-2.88-13.97-18.71-42.26-19.28-42.21-25.07-3.3-39.34-4.8-64.17-1.52l-4.01,13.68s-55.96,24.78-68.77,31.27c-24.37,12.35,84.86,48.89,84.86,48.89"/>
          <path id="Trazado_795" data-name="Trazado 795" class="cls-13" d="m445.45,22.33s19.68-10.67,24.38,17.27c1.52,9.02,13.58,17.02,1.44,32.11-6.94,8.63,4.83,17.25-19.6,31.6-9.47,5.56-20.72,5.25-23.25,4.26-9.25-3.61-34.94,24.13-42.4-1.53-2.95-10.13-19.38-4.84-13.54-27.76,3.36-13.2-12.43-22.28,9.09-35.53,5.57-3.43-3.16-21.18,25.07-22.86,8.73-.52,21.59-16.91,38.8,2.45"/>
          <path id="Trazado_796" data-name="Trazado 796" class="cls-7" d="m453.1,61.41c.45,5.36-1.46,8.78-5.01,9.07.28,2.69.09,5.4-.56,8.02l7.95,27.31c-12.47,18.01-33.05-2.7-33.05-2.7l-.04-2.47,14.45-12.12c-6.46,3.86-12.02,3.8-15.9,2.64-6.06-1.81-10.09-6.39-12.88-11.43-.39-.7-.75-1.41-1.09-2.13-.29-.62-.56-1.24-.82-1.87-.5-1.19-.93-2.39-1.3-3.57-.26-.81-.49-1.61-.7-2.4-.15-.56-.29-1.1-.42-1.64-1.43-6.01-1.6-8.05-1.58-10.78.08-8.23,4.36-15.83,10.11-16.5,5.83-.67,5.52,4.34,17.41,4.26,7.54-.05,9.85,5.69,11.67,12.08.48,1.67,1.22,2.29,1.99,2.11.67-.25,1.21-.75,1.52-1.39.3-.47.64-1.01,1.06-1.61,2.08-2.98,6.59-2,7.2,5.1"/>
          <path id="Trazado_797" data-name="Trazado 797" class="cls-13" d="m422.46,71.77c-.96.17-1.96,0-2.8-.49-.85-.47-1.35-1.39-1.29-2.35.12-1.77.2-3.43.25-4.82-.01-.26.19-.48.45-.49s.48.19.49.45c0,.04,0,.08,0,.11-.05,1.4-.12,3.04-.25,4.81-.02.62.31,1.2.85,1.5,1.17.62,2.59.55,3.69-.19.22-.13.5-.07.64.15.13.22.07.5-.15.64,0,0-.01,0-.02,0-.57.34-1.19.56-1.85.67"/>
          <path id="Trazado_798" data-name="Trazado 798" class="cls-9" d="m441.3,66.08c.72,2.46-.69,5.03-3.15,5.75s-5.03-.69-5.75-3.15c-.72-2.46.69-5.03,3.15-5.75.08-.02.16-.05.24-.06,2.41-.63,4.87.8,5.51,3.21"/>
          <path id="Trazado_799" data-name="Trazado 799" class="cls-9" d="m404.15,69.76c.21.79.44,1.59.7,2.4.38,1.18.81,2.38,1.3,3.57.26.62.53,1.25.82,1.86.33-.01.65-.05.97-.13,2.39-.42,3.98-2.7,3.56-5.09-.42-2.39-2.7-3.98-5.09-3.56-.16.03-.31.06-.46.11-.65.15-1.26.44-1.8.84"/>
          <path id="Trazado_800" data-name="Trazado 800" class="cls-11" d="m366.52,172.32c1-7.34,9.01-33.04,14.69-45.4,6.6-14.37,13.98-23.55,41.03-26.7.29-.04.57-.09.86-.13,8.3,3.22,21.11,3.03,29.94-2.52,17.67-1.7,28.59,1.78,39.18,11.3,18,14.82,26.15,47.59,28.51,55.39l-31.73,17.86,4.53,19.8c-37.16,9.11-93.15.83-94.13.33l2-31.71-1.33,20.7s-37.04,8.2-33.54-18.93"/>
          <path id="Trazado_801" data-name="Trazado 801" class="cls-13" d="m404.12,194.12c.26-.03.44-.25.44-.51l-.98-43.27c0-.28-.24-.49-.51-.49-.28,0-.49.24-.49.51l.98,43.27c0,.28.23.5.51.49h.05"/>
          <path id="Trazado_802" data-name="Trazado 802" class="cls-10" d="m171.77,350.19c-2.74-6.42,5.59-9.09-2.12-19.34-16.95-22.51,4.5-36.55-6.62-55.62-5.84-10.02,6.36-35.49,43.56-29.02l6.64-6.1c-43.88-7.47-75.04,8.87-80.13,33.53-3.85,18.65,8.21,29.14-7.15,57.21l45.82,19.34Z"/>
          <path id="Trazado_803" data-name="Trazado 803" class="cls-13" d="m325.09,209.23c-4.97.45-10.95-21.51-5.89-24.97,5.76,2.16,17.55,22.61,5.89,24.97"/>
          <path id="Trazado_804" data-name="Trazado 804" class="cls-13" d="m296.83,210.78c-1.22.03-2.35-.67-2.85-1.78-.38-.76-.47-1.63-.28-2.45-.76-.32-1.41-.87-1.85-1.57-.66-.87-.77-2.03-.3-3.01-1.19-.39-2.07-1.39-2.31-2.62-.2-.85.07-1.73.7-2.33-1.13-.51-1.97-1.5-2.27-2.7-.2-.78-.36-2.68,2.38-3.55-1.18-.34-2.05-1.35-2.2-2.58-.32-1.27.33-2.58,1.53-3.09,2.4-1.03,8.03-3.45,11.7-3.37,2.47.05,9.27,1.56,12.92,2.37.96.21,1.8.4,2.03.44,2.04-.26,7.39-1.88,14.15-3.93,10.12-3.07,22.72-6.89,32.93-8.86,3.46-.67,9.5-.83,11.06,5.62.75,3.11.25,7.4-1.33,11.49-1.19,3.08-3.28,6.61-5.56,7.28-12.56,3.64-28.51,5.22-38.05,6.16-2.36.16-4.71.44-7.04.86-.62.31-1.24.64-1.87.97-4.98,2.59-10.64,5.53-19.61,6.24-.97.08-2.01.2-3.27.38-.2.03-.4.04-.6.04m-2.06-4.1c-.18.62-.12,1.28.17,1.85.4.9,1.39,1.38,2.35,1.15,1.28-.19,2.34-.31,3.34-.39,8.76-.7,14.31-3.58,19.2-6.12.64-.33,1.26-.66,1.88-.97.55-.28,2.67-.5,7.41-.97,9.5-.94,25.39-2.51,37.85-6.12,3.2-.93,7.75-10.89,6.16-17.5-1.01-4.21-4.41-5.88-9.83-4.83l-.1-.52.1.52c-10.16,1.96-22.73,5.77-32.83,8.84-6.87,2.08-12.3,3.73-14.39,3.98-.79-.07-1.56-.23-2.32-.46-3.36-.75-10.36-2.3-12.72-2.34-3.43-.07-8.92,2.28-11.26,3.28-.73.34-1.12,1.15-.91,1.93.16.91.8,1.7,1.39,1.73,2.03-.22,4.03-.61,5.99-1.18,2.77-.68,3.86-.93,4.31-.81l-1.93,1.68-8.74,2.12c-1.36.42-1.45,1.39-1.23,2.41.19.92.81,1.69,1.66,2.08.76-.25,1.18.09,1.32.45.15.37-.02.79-.38.95-.74.2-1.18.97-.99,1.71.15.96.91,1.7,1.87,1.84h.06c.28-.01.54.15.65.4.11.28.05.59-.17.8-.77.79-.16,1.9.05,2.22.34.57.87,1,1.5,1.21.24-.18.57-.21.84-.07.24.09.4.31.39.57v.36s-.36.13-.36.13c-.11.04-.23.07-.35.09"/>
          <path id="Trazado_805" data-name="Trazado 805" class="cls-14" d="m280.77,228.01c-11.42-.48-20.28-10.14-19.8-21.55.48-11.42,10.14-20.28,21.55-19.8,5.48.23,10.65,2.63,14.36,6.68h0c7.73,8.42,7.17,21.52-1.25,29.25-3.3,3.03-7.5,4.91-11.96,5.35-.97.09-1.94.12-2.91.08m15.38-34c-7.36-8.01-19.82-8.54-27.83-1.18-8.01,7.36-8.54,19.82-1.18,27.83,7.36,8.01,19.82,8.54,27.83,1.18h0c8-7.36,8.53-19.81,1.18-27.83"/>
          <path id="Trazado_806" data-name="Trazado 806" class="cls-14" d="m279.77,244.41l-16.06,16.54-.24.25-13.73-3.74h0l-44.94-11.8,7.76-7.98,29.68,2.88,37.53,3.85Z"/>
          <path id="Trazado_807" data-name="Trazado 807" class="cls-13" d="m263.71,260.95l-.24.25-13.73-3.74h0l-7.73-17.79s13.26,13.25,21.7,21.27"/>
          <path id="Trazado_808" data-name="Trazado 808" class="cls-14" d="m298.47,239.02l-24.39,22.4c-3.76,3.46-9.61,3.21-13.07-.55,0,0,0,0,0,0l-31.23-34,38.01-34.91,31.22,34c3.46,3.76,3.21,9.61-.55,13.07,0,0,0,0,0,0"/>
          <path id="Trazado_809" data-name="Trazado 809" class="cls-13" d="m289.79,186.06l-.42-.97c2.6-1.11,8-3.43,11.66-3.36l-.02,1.06c-3.43-.08-8.89,2.27-11.22,3.27"/>
          <path id="Trazado_810" data-name="Trazado 810" class="cls-13" d="m296.79,210.79c-1.27.05-2.44-.66-2.99-1.8-.44-.82-.46-1.81-.04-2.65-.77-.23-1.44-.72-1.91-1.37-.72-.9-.81-2.16-.21-3.16-.53-.11-1.03-.35-1.44-.69-.8-.65-1.15-1.7-.9-2.7.13-.5.39-.95.76-1.32-.44-.05-.85-.23-1.19-.53-.77-.64-1.24-1.56-1.31-2.55-.17-1.82.96-3.5,2.71-4.04,2.64-.78,5.32-1.4,8.03-1.87l.98-.17-.4.91c-.53,1.2-6.61,2.36-8.3,2.28v-.12c-1.29.41-2.11,1.68-1.95,3.03.07.68.4,1.3.92,1.73.21.2.5.3.78.28.51-.15,2.51-.45,2.86-.12l.24.22-.18.62-.33.07c-1.42.28-2.36.96-2.59,1.85-.15.6.07,1.24.55,1.63.8.57,1.83.72,2.76.4,1.28-.48,1.29-.47,1.5-.39l.33.13.02.7-.33.15c-.38.17-.78.31-1.19.42-.55.2-1.13.43-1.32.52-.47.64-.45,1.51.07,2.12.63.87,1.73,1.27,2.77,1.01,1.03-.37,1.04-.37,1.24-.28l.32.13v.69s-.3.15-.3.15c-.3.14-.62.25-.95.33-.43.16-.9.33-1.06.41-.3.54-.29,1.2.02,1.73.46.94,1.51,1.43,2.52,1.17.51-.12,1-.31,1.45-.59.56-.35,1.18-.58,1.83-.68l.08,1.06c-.5.1-.98.29-1.42.56-.55.34-1.16.58-1.79.71-.21.03-.42.05-.64.05"/>
          <path id="Trazado_811" data-name="Trazado 811" class="cls-3" d="m302.27,203.94s2.34-.33,3.34,1.34c1,1.67-5.01,3.67-5.01,3.67"/>
          <path id="Trazado_812" data-name="Trazado 812" class="cls-13" d="m309.92,194.09c.02.24-.16.46-.4.48-3.77.31-7.33-1.78-8.89-5.23-.12-.22-.03-.5.19-.62.22-.12.5-.03.62.19,0,.01.01.03.02.04,1.39,3.09,4.57,4.98,7.94,4.71.25-.03.48.15.51.4,0,0,0,0,0,0v.03"/>
          <path id="Trazado_813" data-name="Trazado 813" class="cls-7" d="m291.39,191.1l5.66-1.42,5.03,10.59.79,7.42-2.91,1.06-1.06-7.42-2.65-4.24-4.87-6Z"/>
          <path id="Trazado_814" data-name="Trazado 814" class="cls-11" d="m349.78,173.23c-5.61,2.14-30.58,11.03-30.58,11.03,5.95,3.13,12.05,24.1,5.89,24.97,0,0,43.87-10.12,57.46-12.88,14.54-2.95,6.12-38.05,6.12-38.05,0,0-26.4,10.16-38.89,14.93"/>
          <path id="Trazado_815" data-name="Trazado 815" class="cls-13" d="m299.06,194.03l-6.05,1.69c-.28.08-.45.37-.37.65.08.28.37.45.65.37h0l6.06-1.69c1.22-.34,2.01-.16,2.35.53.45.94-.51,1.65-.82,1.85-1.18.68-2.4,1.28-3.67,1.77-.62.26-.92.4-2.27.99-.28.09-.45.38-.4.68.09.3.29.42.7.34.04,0,2.36-.5,3.53-.77s2.38-.54,3.53-.77c.7-.24,1.46.14,1.69.84.01.03.02.06.03.1.08.27.31,1.09-1.52,1.92,0,0-5.11,2.16-5.71,2.44-.26.11-.41.37-.38.65.05.26.29.43.55.38.01,0,.03,0,.04,0,.96-.17,1.9-.4,2.84-.68,1.16-.39,2.36-.67,3.58-.84.65-.09,1.27.25,1.56.83.1.28.08.59-.06.85-.32.53-.84.91-1.44,1.05-1.35.44-5.24,1.69-5.24,1.69-.27.09-.42.37-.34.65.01.04.03.08.06.12.11.22.37.33.61.24,0,0,3.89-1.26,5.24-1.7.88-.22,1.63-.8,2.07-1.61.17-.35.24-.73.22-1.12-.01-.2-.05-.39-.12-.57-.45-1.04-1.53-1.66-2.65-1.53-.07,0-.13.02-.2.02,1.68-.82,2.07-1.81,2.02-2.62-.01-.16-.04-.32-.08-.48-.35-1.28-1.67-2.03-2.95-1.69,0,0,0,0,0,0-.65.13-1.32.27-1.98.42.46-.22.9-.47,1.33-.74.88-.47,1.42-1.4,1.42-2.4-.02-.28-.09-.55-.22-.8-.33-.69-1.24-1.76-3.59-1.1"/>
          <path id="Trazado_816" data-name="Trazado 816" class="cls-13" d="m293.07,196.68c.06,0,.13-.01.19-.04.03-.01,2.9-1.32,4.09-1.76.97-.32,1.75-1.05,2.15-1.99.19-.46.27-.95.24-1.45-.02-.26-.06-.51-.14-.76-.29-1.18-1.44-1.95-2.64-1.78-1.77.32-3.52.79-5.22,1.38l-.25.08c-.25.06-1.08.09-1.05.38.03.31.25.31.53.27.05,0,.75-.16,1.06-.27,1.62-.51,3.3-.76,5-.73.74-.15,1.46.31,1.63,1.04.05.15.08.3.08.45.02.31-.03.62-.15.91-.3.67-.87,1.17-1.56,1.39-1.21.46-4.03,1.73-4.14,1.79-.26.14-.38.45-.28.73.06.2.25.34.46.35"/>
          <path id="Trazado_817" data-name="Trazado 817" class="cls-13" d="m308.93,357.35c-1.52,0-3.7-1.82-4.15-4.09-.27-1.38-.09-3.95,4.21-5.69,2.68-1.08,7.07-2.45,11.02-3.64,1.39-.42,2.79-.83,4.15-1.24,3.74-1.11,7.27-2.16,9.44-2.91.96-.33,1.59-1.24,1.57-2.26l-.61-17,24.62,4.45-.95,19.43.05.29c.46,2.26.73,4.56.81,6.86.01,3.09-2.24,5.1-5.74,5.11l-44.39.67h-.01Zm26.73-35.54l.57,15.69c.03,1.48-.89,2.8-2.29,3.29-2.19.76-5.74,1.81-9.48,2.93-1.36.41-2.76.82-4.15,1.24-3.93,1.19-8.29,2.55-10.93,3.61-2.7,1.09-3.93,2.65-3.57,4.5.35,1.79,2.14,3.24,3.11,3.24h0l44.39-.67c2.28-.01,4.71-1.08,4.7-4.05-.09-2.25-.35-4.48-.8-6.69l-.07-.41.92-18.62-22.41-4.06Z"/>
          <path id="Trazado_818" data-name="Trazado 818" class="cls-13" d="m308.28,357.13l44.89-.21c2.99,0,5.43-2.39,5.48-5.37-.13-2.41-.46-4.81-.97-7.17-1.95-.39-3.97-.29-5.88.28-8.37,2.28-17.83,4.61-20.18,4.41-3.76-.32-8.51-3.4-11.46-4.69-4.29,1.3-8.58,2.52-11.12,3.54-7.37,2.98-3.16,9.23-.77,9.21"/>
          <path id="Trazado_819" data-name="Trazado 819" class="cls-13" d="m335.33,327.1v1.34s22.81,6.67,22.81,6.67l.41-8.39-23.23.37Z"/>
          <path id="Trazado_820" data-name="Trazado 820" class="cls-13" d="m364.45,304.12c4.34,1.4,9.75,3.14,15.76,5.08.72.23,1.44.47,2.17.7l-10.01-44.22-7.92,38.43Z"/>
          <path id="Trazado_821" data-name="Trazado 821" class="cls-5" d="m372.96,178.67c31.52,10.19,76.34,32.08,116.23,49.64l-27.37,67.76c-26.04,3.34-61.73-34.25-86.12-58.41l-2.88,90.91-50.86.22s.28-82.23.03-109.01c-.14-14.6,2.26-24.7,8.16-31.64,3.31-3.77,7.49-6.67,12.18-8.45,9.77-3.94,20.62-4.29,30.63-1"/>
          <path id="Trazado_822" data-name="Trazado 822" class="cls-13" d="m465.04,303.92c.74,0,1.46-.03,2.16-.09.28-.02.48-.26.46-.54s-.26-.48-.54-.46c-11.74.96-30.83-6.53-49.79-19.57-20.43-14.05-35.99-31.17-42.67-46.98-.11-.25-.4-.37-.66-.27s-.37.4-.27.66c6.76,15.97,22.44,33.26,43.03,47.41,18.03,12.4,36.22,19.83,48.28,19.83"/>
          <path id="Trazado_823" data-name="Trazado 823" class="cls-13" d="m474.5,222.39c.28,0,.5-.22.5-.5,0-.2-.11-.38-.29-.46l-34.37-15.7c-.25-.11-.55,0-.66.25-.11.25,0,.55.25.66l34.37,15.7c.07.03.14.05.21.04"/>
          <path id="Trazado_824" data-name="Trazado 824" class="cls-13" d="m442.28,214.12c-7.49-.57-9.67-21.59-5.33-25.45,11.85,1.51,21.36,20.03,5.33,25.45"/>
          <path id="Trazado_825" data-name="Trazado 825" class="cls-7" d="m435.82,207.4c-3.64.94-5.88,1.53-9.87.27-4.32-1.36-9.35-6.12-13.41-6.34-3.07-.16-11.16,2.83-11.66-.72-.02-.74.36-1.44,1-1.82-2.1.2-3.84-.09-3.92-1.89-.03-.6.57-1.35,1.47-2.01-2.02.12-3.7-.18-3.91-1.71-.13-.94.71-1.75,1.9-2.4-1.06-.18-1.81-.67-1.91-1.69s1.11-2.5,4.39-3.52c5.33-1.46,10.74-2.61,16.21-3.45,4.43-.51,15.13,7.95,18.36,7.84,8.18-3.99,26.91-14.57,26.91-14.57l9.06,24.72s-13.47,2.55-24.34,4.88c-3.88.83-8.02,1.82-10.28,2.4"/>
          <path id="Trazado_826" data-name="Trazado 826" class="cls-13" d="m399.51,194.21c-.21.18-.24.49-.07.7.12.15.32.21.5.17l11.31-2.5c.27-.06.44-.33.38-.6-.06-.27-.33-.44-.6-.38h0l-11.31,2.5c-.08.02-.15.05-.21.1"/>
          <path id="Trazado_827" data-name="Trazado 827" class="cls-13" d="m398.24,190.23c-.21.18-.24.49-.07.7.12.15.32.21.5.17l12.48-2.77c.27-.06.44-.33.38-.6-.06-.27-.33-.44-.6-.38l-12.48,2.77c-.08.02-.15.05-.21.1"/>
          <path id="Trazado_828" data-name="Trazado 828" class="cls-13" d="m402.9,197.91c-.21.18-.24.49-.07.7.12.15.32.21.5.17l9.66-2.23c.27-.06.44-.33.38-.6-.06-.27-.33-.44-.6-.38h0l-9.66,2.23c-.08.02-.15.05-.21.1"/>
          <path id="Trazado_829" data-name="Trazado 829" class="cls-11" d="m489.69,159.63c-17.44,1.55-50.37,27.25-52.74,29.04,6.57,2.11,9.29,24.93,5.34,25.37,0,0,47.69-9.67,67.09-15.69,11.39-3.53,17.33-14.39,14.8-26.03-1.45-6.68-11.13-31.38-11.13-31.38l-23.36,18.69Z"/>
          <path id="Trazado_830" data-name="Trazado 830" class="cls-13" d="m473.34,146.95l7.01,19.36-6.34,3.34-.67-22.7Z"/>
          <path id="Trazado_831" data-name="Trazado 831" class="cls-13" d="m175.48,357.08h-96.61c.42-.38.88-.71,1.37-1,1.94-1.21,4.36-2.4,7.47-9.18,7.55-16.47,7.55-6.59,16.13-19.32,1.4-2.22,3.25-4.11,5.43-5.57,5.02-3.15,9.65-1.33,12.9-2.69,6.87-2.89,12.01-2.81,15.45-1.22,1.03.47,1.97,1.12,2.76,1.93.39.41.75.85,1.06,1.32,3.55,5.46,6.82-.26,14.1,9.54.65.87,1.33,1.87,2.04,3.01,3.4,5.41,9.49.42,13.47,13.7.91,2.97,2.17,5.82,3.77,8.49.24.38.46.72.67,1"/>
          <path id="Trazado_832" data-name="Trazado 832" class="cls-13" d="m152.44,335.36c1.59-13.51-2.51-48.8-1.78-56.62.2-2.1.37-4.24.56-6.41.1-1.08.19-2.17.29-3.26.07-1.1.1-2.2.15-3.31.09-2.21.18-4.44.28-6.68,0-2.24-.01-4.49-.02-6.74.03-2.25-.08-4.5-.2-6.73-.05-1.12-.11-2.23-.16-3.35-.04-1.11-.11-2.22-.22-3.32-.19-2.2-.39-4.38-.58-6.55-.23-2.15-.53-4.27-.79-6.36-.24-2.09-.58-4.13-.92-6.13s-.61-3.96-1.01-5.84l-1.09-5.51-1.15-5.11c-.71-3.28-1.55-6.25-2.2-8.9l-1.88-6.8-1.73-5.9c-.09-.32-.42-.51-.75-.42-.32.09-.51.42-.42.75h0s1.57,5.93,1.57,5.93l1.68,6.83c.57,2.65,1.33,5.62,1.94,8.9.32,1.64.66,3.34,1,5.11l.93,5.49c.35,1.88.56,3.83.84,5.81s.56,4.01.74,6.09c.2,2.07.43,4.17.61,6.31.13,2.13.26,4.29.39,6.48.08,1.09.12,2.18.13,3.28s.04,2.2.06,3.3c.05,2.21.1,4.42.01,6.64-.05,2.21-.11,4.42-.16,6.63l-.45,6.57c-.08,1.09-.14,2.17-.23,3.24-.12,1.07-.25,2.14-.37,3.2-.25,2.12-.49,4.21-.73,6.27-.33,2.05-4.65,49.96-4.39,56.31-.7,2.59,10.07.79,10.07.79"/>
          <path id="Trazado_833" data-name="Trazado 833" class="cls-13" d="m213.33,195.45c4.21-2.72-23.36-37.23-54.74,7.08l54.74-7.08Z"/>
          <path id="Trazado_834" data-name="Trazado 834" class="cls-13" d="m157.2,220.82s-2.93,8.22-5.08,16.71c-.54,2.12-1.05,4.25-1.43,6.28-.21,1.01-.39,1.99-.52,2.93-.16.93-.28,1.83-.36,2.66-.05.41-.09.81-.13,1.19-.02.38-.04.75-.05,1.09-.05.6-.06,1.19-.03,1.79l.08,1.59c.01.6.51,1.08,1.12,1.07.6-.01,1.08-.51,1.07-1.12,0-.02,0-.04,0-.06v-.16s-.11-1.4-.11-1.4c-.04-.55-.04-1.09,0-1.64,0-.32.01-.66.02-1.02l.1-1.14c.06-.79.14-1.66.28-2.57.11-.91.26-1.87.44-2.87.33-1.99.78-4.1,1.26-6.21.96-4.22,2.12-8.4,3.04-11.51s1.6-5.17,1.6-5.17c.11-.35-.09-.73-.44-.84-.34-.1-.7.07-.82.4"/>
          <path id="Trazado_835" data-name="Trazado 835" class="cls-13" d="m148.99,278.98c-.02-1.75-.15-3.5-.4-5.24-.21-1.56-.43-3.37-.82-5.3-.21-.96-.36-1.96-.63-2.96-.24-1.01-.49-2.02-.8-3.03-.28-1.02-.62-2.01-.97-2.99-.32-.99-.76-1.92-1.14-2.83s-.88-1.75-1.28-2.57c-.43-.8-.95-1.51-1.37-2.19-.42-.6-.88-1.17-1.36-1.72-.35-.45-.75-.85-1.19-1.22l-1.11-1c-.25-.23-.64-.22-.87.03-.23.25-.22.64.03.87l.08.07.99.95c.4.34.75.73,1.06,1.15.43.53.84,1.08,1.22,1.64.38.66.84,1.33,1.23,2.11.36.79.81,1.59,1.15,2.48s.74,1.79,1.02,2.76c.31.95.62,1.92.87,2.92.28.98.5,1.98.71,2.97.23.98.38,1.96.56,2.91.32,1.89.56,3.67.72,5.2.33,3.07.38,5.09.38,5.09.02.6.51,1.08,1.12,1.07.55-.03.96-.5.93-1.04,0-.03,0-.06,0-.08,0,0-.14-.02-.14-.03v-.02Z"/>
          <path id="Trazado_836" data-name="Trazado 836" class="cls-6" d="m61.34,221.9c8.47-3.03,16.47-12.9,34.41-8.78,28.4,6.52,44.42,34.27,42.52,35.83-21.76,5.19-49.1-1.4-64.3-11.7,0,0,0,0-.01,0,0,0,0,0,0,0-7.47-7.81-15.91-14.17-12.63-15.34"/>
          <path id="Trazado_837" data-name="Trazado 837" class="cls-8" d="m120.74,246.03c-6.55,9.42-19.5,11.75-28.93,5.2-9.42-6.55-11.75-19.5-5.2-28.93,6.55-9.42,19.5-11.75,28.93-5.2,9.42,6.55,11.75,19.5,5.2,28.93,0,0,0,0,0,0"/>
          <path id="Trazado_838" data-name="Trazado 838" class="cls-12" d="m103.83,251.57c-9.64.1-17.53-7.63-17.63-17.26-.1-9.64,7.63-17.53,17.26-17.63,9.64-.1,17.53,7.63,17.63,17.26.09,8.51-5.97,15.84-14.34,17.35-.96.17-1.94.27-2.92.28m-.32-33.92c-9.12.1-16.44,7.57-16.34,16.7.1,9.12,7.57,16.44,16.7,16.34,9.12-.1,16.44-7.57,16.34-16.7-.06-5.35-2.7-10.34-7.1-13.39-2.82-1.96-6.17-2.99-9.6-2.95"/>
          <path id="Trazado_839" data-name="Trazado 839" class="cls-8" d="m195.97,199.51c-9.65,6.22-22.51,3.45-28.73-6.2-6.22-9.65-3.45-22.51,6.2-28.73,9.65-6.22,22.51-3.45,28.73,6.2,0,0,0,0,0,0,6.22,9.65,3.45,22.51-6.2,28.73"/>
          <path id="Trazado_840" data-name="Trazado 840" class="cls-12" d="m167.39,180.49c.86-9.56,9.32-16.62,18.88-15.75s16.62,9.32,15.75,18.88c-.86,9.56-9.32,16.62-18.88,15.75-5.34-.48-10.15-3.4-13.05-7.9-2.1-3.26-3.05-7.12-2.7-10.98m33.78,3.03c.81-9.09-5.9-17.11-14.99-17.93-9.09-.81-17.11,5.9-17.93,14.99-.81,9.09,5.9,17.11,14.99,17.93,3.66.33,7.33-.58,10.43-2.57,4.29-2.75,7.06-7.34,7.5-12.41"/>
          <path id="Trazado_841" data-name="Trazado 841" class="cls-13" d="m138.28,248.94c-2.26,1.96-13.25,4.21-24.09,5.99-26.12,4.28-32.22-8.88-38.26-15.59-.64-.72-1.29-1.42-1.96-2.1,15.2,10.3,42.53,16.89,64.3,11.7"/>
          <path id="Trazado_842" data-name="Trazado 842" class="cls-6" d="m111.95,160.47c-6.15-7.98-11.05-15.21-10.04-16.98.13-.19.33-.32.55-.38,9.65-2.06,18.15-6.44,36.04,5.35,14.29,9.42,7.37,29.1,2.24,35.13-.68.76-8.11.39-14.53-3.04-9.76-5.22-9.39-13.77-14.26-20.08"/>
          <path id="Trazado_843" data-name="Trazado 843" class="cls-13" d="m101.91,143.49c-1.01,1.77,3.89,9,10.04,16.98,4.87,6.31,4.5,14.87,14.26,20.08-9.76-5.22-13.65-7.94-18.52-14.25-6.29-8.15-7.65-20.47-5.78-22.81"/>
          <path id="Trazado_844" data-name="Trazado 844" class="cls-6" d="m157.89,223.03c-3.51,1.45-5.18-28.11,13.61-30.19,5.42-.6,15.76-4.7,23.1-4.79,9.07-.11,14.97,4.08,18.5,6.55,5,3.5-44.82,10.03-55.21,28.42"/>
          <path id="Trazado_845" data-name="Trazado 845" class="cls-8" d="m147.82,318.32c-17.07.18-30.77,14.16-30.59,31.24.02,2.02.24,4.04.66,6.02.05.27.11.53.17.79h60.14c.07-.26.12-.53.18-.79,3.5-16.72-7.22-33.11-23.93-36.61-2.18-.46-4.4-.68-6.63-.65"/>
          <path id="Trazado_846" data-name="Trazado 846" class="cls-12" d="m173,357.04h-1.35c-.22.02-.42-.13-.44-.35-.02-.22.13-.42.35-.44.03,0,.06,0,.09,0h1.05c.04-.16.09-.32.13-.49,3.46-13.64-4.79-27.49-18.43-30.95-2.05-.52-4.15-.78-6.26-.78h-.26c-14.07.14-25.36,11.66-25.21,25.73h0c.02,2.02.28,4.04.77,6,.04.17.08.33.13.49h1.05c.22-.02.42.13.44.35.02.22-.13.42-.35.44-.03,0-.06,0-.09,0h-1.35c-.18,0-.33-.12-.38-.29-.07-.23-.14-.49-.22-.81-.51-2.02-.78-4.1-.8-6.19-.15-14.51,11.49-26.38,26-26.53h.27c14.51,0,26.27,11.76,26.27,26.27,0,2.18-.27,4.35-.81,6.46-.07.29-.14.56-.22.81-.05.17-.21.28-.38.28"/>
          <path id="Trazado_847" data-name="Trazado 847" class="cls-13" d="m146.89,357.08h64.6c.88-.07,1.78-.16,2.7-.29,0,0-.33-.32-.75-.74-.38-.38-.83-.83-1.16-1.19-.08-.08-.15-.17-.23-.25-13-14.04-9.14-4.39-21.57-14.49-10.17-8.26-14.61-2.48-19.16-3.09-9.35-1.25-14.1,1.7-15.56,5.65-.19.51-.32,1.04-.41,1.58-.91,6.04-5.62,1.97-8.2,11.79-.09.33-.17.68-.26,1.04"/>
          <path id="Trazado_848" data-name="Trazado 848" class="cls-13" d="m582.69,356.74c0,.28-.22.5-.5.5H31.43c-.28,0-.5-.22-.5-.5s.22-.5.5-.5h550.75c.28,0,.5.22.5.5"/>
          <path id="Trazado_849" data-name="Trazado 849" class="cls-12" d="m106.43,242.52l-.7-1.93c-1.58.5-3.32-.01-4.37-1.3l.4-.42c.49.56,1.12.97,1.83,1.21.74.19,1.52.14,2.23-.15.78-.28,1.47-.77,1.99-1.42.53-.66.65-1.56.31-2.34-.22-.72-.74-1.3-1.43-1.6-.98-.32-2.01-.45-3.03-.36-1.02.08-2.04-.05-3-.39-.73-.32-1.28-.94-1.51-1.7-.3-.8-.19-1.68.27-2.39.41-.72,1.06-1.29,1.83-1.6l-.7-1.96.54-.19.7,1.96c.58-.18,1.18-.25,1.79-.19.6.08,1.16.32,1.63.7l-.33.45c-.9-.67-2.09-.82-3.13-.4-.73.25-1.36.73-1.8,1.37-.43.6-.53,1.37-.26,2.05.19.6.62,1.09,1.18,1.37.99.33,2.04.45,3.08.33,1.06-.07,2.13.08,3.13.47.76.37,1.33,1.04,1.58,1.85.33.85.25,1.79-.21,2.58-.49.85-1.26,1.5-2.18,1.85l.7,1.96-.53.19Z"/>
          <path id="Trazado_850" data-name="Trazado 850" class="cls-2" d="m106.43,242.52l-.7-1.93c-1.58.5-3.32-.01-4.37-1.3l.4-.42c.49.56,1.12.97,1.83,1.21.74.19,1.52.14,2.23-.15.78-.28,1.47-.77,1.99-1.42.53-.66.65-1.56.31-2.34-.22-.72-.74-1.3-1.43-1.6-.98-.32-2.01-.45-3.03-.36-1.02.08-2.04-.05-3-.39-.73-.32-1.28-.94-1.51-1.7-.3-.8-.19-1.68.27-2.39.41-.72,1.06-1.29,1.83-1.6l-.7-1.96.54-.19.7,1.96c.58-.18,1.18-.25,1.79-.19.6.08,1.16.32,1.63.7l-.33.45c-.9-.67-2.09-.82-3.13-.4-.73.25-1.36.73-1.8,1.37-.43.6-.53,1.37-.26,2.05.19.6.62,1.09,1.18,1.37.99.33,2.04.45,3.08.33,1.06-.07,2.13.08,3.13.47.76.37,1.33,1.04,1.58,1.85.33.85.25,1.79-.21,2.58-.49.85-1.26,1.5-2.18,1.85l.7,1.96-.53.19Z"/>
          <path id="Trazado_851" data-name="Trazado 851" class="cls-12" d="m178.06,186.22l1.49-1.42c-.54-.63-.88-1.4-.99-2.22-.08-.79.06-1.59.41-2.3l.55.2c-.31.68-.44,1.42-.36,2.16.12.75.49,1.45,1.04,1.98.57.6,1.3,1.04,2.1,1.25.82.22,1.69-.04,2.26-.66.57-.49.89-1.21.89-1.96-.1-1.02-.41-2.02-.9-2.92-.48-.9-.78-1.88-.86-2.9,0-.79.34-1.55.94-2.07.61-.59,1.46-.86,2.3-.72.83.08,1.6.45,2.2,1.03l1.51-1.44.4.41-1.51,1.44c.4.45.71.98.89,1.56.17.58.17,1.19.02,1.78l-.55-.12c.25-1.1-.09-2.24-.9-3.02-.52-.57-1.22-.96-1.98-1.1-.72-.15-1.47.07-1.98.6-.47.42-.75,1.01-.78,1.64.09,1.04.42,2.05.94,2.95.5.94.78,1.98.84,3.05-.03.85-.42,1.64-1.06,2.19-.64.64-1.54.95-2.44.85-.98-.11-1.88-.55-2.57-1.25l-1.51,1.44-.39-.42Z"/>
          <path id="Trazado_852" data-name="Trazado 852" class="cls-2" d="m178.06,186.22l1.49-1.42c-.54-.63-.88-1.4-.99-2.22-.08-.79.06-1.59.41-2.3l.55.2c-.31.68-.44,1.42-.36,2.16.12.75.49,1.45,1.04,1.98.57.6,1.3,1.04,2.1,1.25.82.22,1.69-.04,2.26-.66.57-.49.89-1.21.89-1.96-.1-1.02-.41-2.02-.9-2.92-.48-.9-.78-1.88-.86-2.9,0-.79.34-1.55.94-2.07.61-.59,1.46-.86,2.3-.72.83.08,1.6.45,2.2,1.03l1.51-1.44.4.41-1.51,1.44c.4.45.71.98.89,1.56.17.58.17,1.19.02,1.78l-.55-.12c.25-1.1-.09-2.24-.9-3.02-.52-.57-1.22-.96-1.98-1.1-.72-.15-1.47.07-1.98.6-.47.42-.75,1.01-.78,1.64.09,1.04.42,2.05.94,2.95.5.94.78,1.98.84,3.05-.03.85-.42,1.64-1.06,2.19-.64.64-1.54.95-2.44.85-.98-.11-1.88-.55-2.57-1.25l-1.51,1.44-.39-.42Z"/>
        </g>
      </g>
    </g>
    <g id="Grupo_214" data-name="Grupo 214">
      <g class="cls-15">
        <g id="Grupo_213" data-name="Grupo 213">
          <path id="Trazado_853" data-name="Trazado 853" class="cls-12" d="m146.33,367.41v-4.06c-1.64-.08-3.21-.65-4.53-1.62-1.25-.96-2.19-2.25-2.73-3.73l1.03-.52c.54,1.37,1.44,2.57,2.6,3.47,1.25.86,2.74,1.28,4.24,1.21,1.64.01,3.26-.44,4.66-1.31,1.43-.88,2.25-2.47,2.14-4.14.07-1.48-.52-2.92-1.6-3.94-1.6-1.26-3.44-2.17-5.4-2.7-1.95-.53-3.76-1.46-5.33-2.73-1.14-1.08-1.75-2.6-1.67-4.17-.02-1.68.77-3.27,2.11-4.27,1.25-1.07,2.83-1.69,4.48-1.75v-4.12h1.13v4.12c1.2.04,2.37.33,3.45.85,1.06.55,1.94,1.38,2.57,2.39l-.93.62c-1.22-1.86-3.34-2.93-5.56-2.83-1.53-.03-3.03.44-4.27,1.34-1.2.82-1.9,2.2-1.85,3.65-.04,1.24.43,2.45,1.29,3.34.86.89,2.69,1.78,5.51,2.68,2.03.57,3.91,1.58,5.51,2.96,1.17,1.2,1.78,2.83,1.7,4.5.04,1.79-.73,3.51-2.11,4.66-1.49,1.25-3.36,1.95-5.3,1.98v4.12h-1.13Z"/>
          <path id="Trazado_854" data-name="Trazado 854" class="cls-12" d="m153.35,356.71c.07-1.37-.47-2.7-1.47-3.64-1.56-1.22-3.35-2.1-5.26-2.62-2-.55-3.86-1.51-5.47-2.81-1.22-1.16-1.87-2.78-1.8-4.46-.02-1.8.82-3.5,2.26-4.58,1.22-1.04,2.73-1.67,4.33-1.82v-4.14h1.92v4.14c1.12.08,2.22.38,3.23.86,1.12.59,2.06,1.46,2.73,2.53l.22.33-1.58,1.06-.22-.33c-1.15-1.75-3.14-2.75-5.23-2.65-1.45-.02-2.86.42-4.04,1.26-1.1.75-1.74,2-1.69,3.33-.04,1.14.38,2.25,1.17,3.07.81.84,2.6,1.7,5.34,2.57,2.09.59,4.02,1.64,5.66,3.05,1.24,1.28,1.9,3.01,1.82,4.79m0,0c.04,1.91-.79,3.73-2.25,4.96-1.45,1.23-3.26,1.95-5.16,2.05v4.14h-1.93v-4.1c-3.3-.27-6.13-2.45-7.23-5.57l-.13-.33,1.73-.86.17.39c.52,1.3,1.37,2.44,2.47,3.31,1.18.8,2.58,1.2,4.01,1.13,1.57,0,3.11-.43,4.45-1.25,1.31-.8,2.06-2.27,1.95-3.8m-6.61,10.31h.34v-4.1l.38-.02c1.85-.03,3.64-.7,5.06-1.88,1.29-1.07,2.02-2.68,1.97-4.36.08-1.56-.49-3.09-1.58-4.22-1.56-1.33-3.38-2.31-5.35-2.86-2.9-.92-4.75-1.83-5.66-2.78-.93-.97-1.44-2.27-1.4-3.62-.05-1.58.71-3.08,2.02-3.97,1.31-.94,2.89-1.44,4.5-1.41,2.21-.1,4.33.91,5.66,2.68l.27-.18c-.56-.81-1.32-1.47-2.19-1.93-1.03-.49-2.15-.77-3.29-.81l-.38-.02v-4.1h-.34v4.11h-.39c-1.56.07-3.05.66-4.24,1.67-1.25.93-1.98,2.4-1.96,3.96-.08,1.46.49,2.87,1.55,3.88,1.53,1.23,3.29,2.13,5.18,2.64,2.02.54,3.91,1.49,5.55,2.79,1.16,1.09,1.79,2.64,1.72,4.23.11,1.81-.78,3.53-2.33,4.48-1.46.9-3.15,1.38-4.86,1.37-1.59.07-3.17-.38-4.48-1.29-1.1-.86-1.98-1.97-2.55-3.25l-.33.17c.52,1.27,1.37,2.38,2.46,3.22,1.26.92,2.76,1.46,4.32,1.54l.37.03v4.04Z"/>
        </g>
      </g>
    </g>
  </g>
</svg>